<?xml version="1.0" encoding="UTF-8" standalone="no"?>
<!-- Created with Inkscape (http://www.inkscape.org/) -->

<svg
   xmlns:dc="http://purl.org/dc/elements/1.1/"
   xmlns:cc="http://creativecommons.org/ns#"
   xmlns:rdf="http://www.w3.org/1999/02/22-rdf-syntax-ns#"
   xmlns:svg="http://www.w3.org/2000/svg"
   xmlns="http://www.w3.org/2000/svg"
   xmlns:sodipodi="http://sodipodi.sourceforge.net/DTD/sodipodi-0.dtd"
   xmlns:inkscape="http://www.inkscape.org/namespaces/inkscape"
   width="16.577612mm"
   height="23.233545mm"
   viewBox="0 0 16.577612 23.233545"
   version="1.1"
   id="svg8"
   inkscape:version="0.92.3 (2405546, 2018-03-11)"
   sodipodi:docname="logo_inti.svg">
  <defs
     id="defs2" />
  <sodipodi:namedview
     id="base"
     pagecolor="#ffffff"
     bordercolor="#001cda"
     borderopacity="1"
     inkscape:pageopacity="0.0"
     inkscape:pageshadow="2"
     inkscape:zoom="0.53427418"
     inkscape:cx="23.129558"
     inkscape:cy="-130.19465"
     inkscape:document-units="mm"
     inkscape:current-layer="layer1"
     showgrid="true"
     showguides="true"
     inkscape:guide-bbox="true"
     inkscape:window-width="1360"
     inkscape:window-height="713"
     inkscape:window-x="0"
     inkscape:window-y="29"
     inkscape:window-maximized="1"
     inkscape:snap-tangential="false"
     inkscape:showpageshadow="false">
    <sodipodi:guide
       position="-82.219647,-189.58189"
       orientation="1,0"
       id="guide815"
       inkscape:locked="false"
       inkscape:label=""
       inkscape:color="rgb(0,0,255)" />
    <sodipodi:guide
       position="107.78036,-189.58189"
       orientation="1,0"
       id="guide817"
       inkscape:locked="false"
       inkscape:label=""
       inkscape:color="rgb(0,0,255)" />
    <inkscape:grid
       type="xygrid"
       id="grid857"
       units="mm"
       spacingx="1"
       spacingy="1"
       dotted="false"
       originx="-92.219646"
       originy="-189.5819" />
  </sodipodi:namedview>
  <metadata
     id="metadata5">
    <rdf:RDF>
      <cc:Work
         rdf:about="">
        <dc:format>image/svg+xml</dc:format>
        <dc:type
           rdf:resource="http://purl.org/dc/dcmitype/StillImage" />
        <dc:title />
        <dc:creator>
          <cc:Agent>
            <dc:title>Matías Senger</dc:title>
          </cc:Agent>
        </dc:creator>
        <cc:license
           rdf:resource="http://creativecommons.org/publicdomain/zero/1.0/" />
      </cc:Work>
      <cc:License
         rdf:about="http://creativecommons.org/publicdomain/zero/1.0/">
        <cc:permits
           rdf:resource="http://creativecommons.org/ns#Reproduction" />
        <cc:permits
           rdf:resource="http://creativecommons.org/ns#Distribution" />
        <cc:permits
           rdf:resource="http://creativecommons.org/ns#DerivativeWorks" />
      </cc:License>
    </rdf:RDF>
  </metadata>
  <g
     inkscape:label="Capa 1"
     inkscape:groupmode="layer"
     id="layer1"
     transform="translate(-92.219645,-84.184565)">
    <path
       style="fill:#000000;stroke-width:1"
       d="m 93.21428,107.17585 c 0.0155,-0.26457 -0.002,-0.25068 0.44831,-0.36633 l 0.19984,-0.0514 -0.0124,-1.43675 -0.0124,-1.43675 -0.3046,-0.0726 -0.3046,-0.0726 -0.0143,-0.2226 -0.0143,-0.22259 h 1.05941 1.05941 l -0.0142,0.24602 -0.0142,0.24603 -0.29288,0.0417 -0.29289,0.0417 v 1.46872 1.46872 l 0.10544,0.0245 c 0.058,0.0135 0.18979,0.0411 0.29289,0.0614 l 0.18744,0.0368 0.0142,0.24414 0.0142,0.24413 h -1.05929 -1.05929 z m 2.89617,-0.007 v -0.24917 l 0.35215,-0.083 0.35215,-0.083 -0.0124,-1.40953 -0.0124,-1.40953 -0.11715,-0.0365 c -0.0644,-0.0201 -0.20678,-0.0595 -0.31632,-0.0877 l -0.19917,-0.0512 v -0.23251 -0.2325 l 0.8318,7.1e-4 0.8318,7.1e-4 0.44397,0.69047 c 0.24419,0.37976 0.64984,1.00679 0.90145,1.3934 l 0.45748,0.70293 7e-4,-1.08954 c 5.4e-4,-0.92111 -0.01,-1.08954 -0.0673,-1.08954 -0.0374,0 -0.17446,-0.0228 -0.3046,-0.0507 l -0.23662,-0.0507 v -0.25385 -0.25386 h 0.91381 0.91381 v 0.23341 c 0,0.21632 -0.009,0.23556 -0.12887,0.26261 -0.0709,0.0161 -0.19214,0.0442 -0.26946,0.0624 l -0.14058,0.0332 -0.0123,1.76607 -0.0123,1.76607 -0.40948,-3.6e-4 -0.40948,-3.5e-4 -1.00753,-1.59216 c -0.55414,-0.87569 -1.02369,-1.59253 -1.04344,-1.59298 -0.0198,-5.3e-4 -0.0303,0.56268 -0.0234,1.25138 l 0.0125,1.2522 0.29289,0.0874 0.29289,0.0874 v 0.25368 0.25367 h -0.93724 -0.93724 z m 5.92609,0.0416 c -0.0171,-0.11415 -0.0191,-0.22704 -0.004,-0.25086 0.0147,-0.0238 0.18626,-0.0706 0.38121,-0.10393 0.19494,-0.0333 0.36221,-0.0733 0.37171,-0.0889 0.009,-0.0156 0.0242,-0.68199 0.0327,-1.48099 l 0.0155,-1.45272 -0.35056,0.0167 c -0.19281,0.009 -0.35431,0.02 -0.35889,0.024 -0.005,0.004 -0.042,0.20735 -0.0832,0.45192 -0.13065,0.77608 -0.0907,0.70241 -0.38082,0.70241 h -0.25402 v -0.86695 -0.86694 h 1.85105 1.85104 v 0.86694 0.86695 h -0.28117 c -0.15464,0 -0.28184,-0.0158 -0.28266,-0.0352 -8.8e-4,-0.0193 -0.0318,-0.25657 -0.0688,-0.52719 -0.037,-0.27063 -0.068,-0.50658 -0.0688,-0.52433 -8.9e-4,-0.0178 -0.10165,-0.0455 -0.22408,-0.0616 -0.12243,-0.0161 -0.28059,-0.0402 -0.35147,-0.0535 l -0.12887,-0.0241 v 1.47486 c 0,1.13707 0.0134,1.47984 0.0586,1.49658 0.0322,0.0119 0.20092,0.0497 0.3749,0.0839 l 0.31632,0.0622 v 0.24914 0.24915 h -1.19211 -1.19211 z m 3.64301,-0.0371 0.0142,-0.24467 0.21088,-0.0556 c 0.11598,-0.0306 0.26887,-0.0685 0.33975,-0.0843 l 0.12887,-0.0286 v -1.4252 -1.4252 l -0.35547,-0.0791 c -0.32407,-0.0721 -0.3531,-0.0879 -0.32867,-0.17892 0.0147,-0.0549 0.0271,-0.15784 0.0274,-0.22872 l 7e-4,-0.12887 h 1.03097 1.03096 v 0.25228 c 0,0.28385 -0.0323,0.30821 -0.41071,0.30942 l -0.19983,7.1e-4 0.0124,1.46208 0.0124,1.46207 0.30441,0.075 c 0.33071,0.0815 0.3601,0.12004 0.30701,0.40304 l -0.0299,0.15934 h -1.05471 -1.05472 z m -6.47621,-6.49875 c -1.88148,-0.33073 -3.40283,-1.129063 -4.66343,-2.447153 -2.70648,-2.8299 -3.0874,-7.11623 -0.9204,-10.356914 2.64133,-3.95004 8.04397,-4.878751 11.85243,-2.037431 1.31754,0.982953 2.32337,2.363331 2.86353,3.929854 0.85235,2.471927 0.51432,5.133841 -0.92746,7.303361 -1.25122,1.88278 -3.23298,3.182613 -5.46324,3.583323 -0.66488,0.11946 -2.12804,0.13278 -2.74143,0.025 z m 2.55398,-0.54166 c 2.4412,-0.398833 4.53449,-1.932823 5.67191,-4.156453 1.08237,-2.11603 1.10702,-4.681013 0.0659,-6.86307 -0.61291,-1.284633 -1.71163,-2.505853 -2.92712,-3.253464 -0.80032,-0.492253 -1.81422,-0.874787 -2.73943,-1.033562 -0.74403,-0.127683 -1.88345,-0.127478 -2.62906,4.78e-4 -2.09496,0.359508 -4.01943,1.623738 -5.17746,3.4012 -0.8683,1.332738 -1.26727,2.693473 -1.25036,4.264436 0.0207,1.925952 0.62393,3.569222 1.84308,5.021042 1.29777,1.54545 3.18417,2.509913 5.29145,2.705363 0.36758,0.0341 1.41349,-0.0145 1.85105,-0.086 z m -6.30293,-3.096413 v -0.5405 l 0.50376,0.0133 0.50377,0.0133 0.0132,0.5272 0.0132,0.5272 H 95.9713 95.45429 Z m 1.52035,0.48017 c -0.0134,-0.0349 -0.0183,-0.27288 -0.0109,-0.52879 l 0.0135,-0.46528 h 0.51548 0.51548 v 0.51548 0.51548 l -0.50462,0.0133 c -0.39076,0.0103 -0.51012,-10e-4 -0.529,-0.0502 z m 1.47881,-0.47859 v -0.53891 h 0.51548 0.51548 v 0.53891 0.53891 h -0.51548 -0.51548 z m 1.52036,0.47859 c -0.0134,-0.0349 -0.0183,-0.27288 -0.0109,-0.52879 l 0.0135,-0.46528 h 0.51548 0.51549 v 0.51548 0.51548 l -0.50463,0.0133 c -0.39076,0.0103 -0.51012,-10e-4 -0.52899,-0.0502 z m 1.53585,-0.46687 0.0132,-0.5272 0.50376,-0.0133 0.50377,-0.0133 v 0.54049 0.5405 h -0.51702 -0.51701 z m 1.4894,-0.0117 v -0.53891 h 0.51548 0.51548 v 0.53891 0.53891 h -0.51548 -0.51548 z m 1.52035,0.47859 c -0.0134,-0.0349 -0.0183,-0.27288 -0.0109,-0.52879 l 0.0135,-0.46528 h 0.51548 0.51548 v 0.51548 0.51548 l -0.50462,0.0133 c -0.39076,0.0103 -0.51012,-0.001 -0.529,-0.0502 z m -9.06512,-2.0016 v -0.51549 h 0.51548 0.51548 v 0.51549 0.51548 h -0.51548 -0.51548 z m 1.49958,0 v -0.51549 h 0.53891 0.53891 v 0.51549 0.51548 h -0.53891 -0.53891 z m 1.49958,0 v -0.51549 h 0.51548 0.51548 v 0.51549 0.51548 h -0.51548 -0.51548 z m 1.49958,0 v -0.51549 h 0.53892 0.53891 v 0.51549 0.51548 h -0.53891 -0.53892 z m 1.54645,0 v -0.51549 h 0.51548 0.51548 v 0.51549 0.51548 h -0.51548 -0.51548 z m 1.49958,0 v -0.51549 h 0.51548 0.51548 v 0.51549 0.51548 h -0.51548 -0.51548 z m 1.49958,0 v -0.51549 h 0.53891 0.53892 v 0.51549 0.51548 h -0.53892 -0.53891 z m -9.04435,-1.54646 V 93.45318 h 0.51548 0.51548 v 0.515477 0.51549 h -0.51548 -0.51548 z m 1.49958,-0.002 v -0.517012 l 0.5272,0.01325 0.52719,0.0132 0.0133,0.50376 0.0133,0.50377 h -0.5405 -0.5405 z m 1.49958,0.002 V 93.45318 h 0.51548 0.51548 v 0.515477 0.51549 h -0.51548 -0.51548 z m 1.50971,0.0117 0.0133,-0.50377 h 0.51549 0.51548 l 0.0133,0.50377 0.0133,0.50377 h -0.54208 -0.54209 z m 1.53632,-0.0117 V 93.45318 h 0.51548 0.51548 v 0.515477 0.51549 h -0.51548 -0.51548 z m 1.49958,0 V 93.45318 h 0.51548 0.51548 v 0.515477 0.51549 h -0.51548 -0.51548 z m 1.49958,-0.002 v -0.517012 l 0.5272,0.01325 0.52719,0.0132 0.0133,0.50376 0.0133,0.50377 h -0.5405 -0.5405 v -0.51701 z m -9.01311,-0.966936 c -0.0172,-0.01718 -0.0312,-0.249149 -0.0312,-0.515481 V 92 h 0.53891 0.53891 v 0.515482 0.515481 h -0.50767 c -0.27922,0 -0.52173,-0.01406 -0.53891,-0.03124 z m 1.5152,-0.484239 V 92 h 0.51548 0.51548 v 0.515482 0.515481 h -0.51548 -0.51548 z m 1.49958,0 V 92 h 0.51548 0.51549 v 0.515482 0.515481 h -0.51549 -0.51548 z m 1.49959,0 V 92 h 0.51548 0.51548 v 0.515482 0.515481 H 100.51548 100 Z m 1.54644,0 V 92 h 0.51548 0.51548 v 0.515482 0.515481 h -0.51548 -0.51548 z m 1.49958,0 V 92 h 0.51548 0.51548 v 0.515482 0.515481 h -0.51548 -0.51548 z m 1.49958,0 V 92 h 0.51548 0.51549 v 0.515482 0.515481 h -0.51549 -0.51548 z m -9.09121,-1.546444 v -0.514871 h 0.51548 0.51548 v 0.515481 0.515481 h -0.51548 -0.51548 z m 1.49958,0 v -0.514871 h 0.53891 0.53891 v 0.515481 0.515481 h -0.53891 -0.53891 z m 1.49958,0 v -0.514871 h 0.51548 0.51548 v 0.515481 0.515481 h -0.51548 -0.51548 z m 1.49958,0 v -0.514871 h 0.53892 0.53891 v 0.515481 0.515481 h -0.53891 -0.53892 z m 1.54645,0 v -0.514871 h 0.51548 0.51548 v 0.515481 0.515481 h -0.51548 -0.51548 z m 1.49958,0 v -0.514871 h 0.51548 0.51548 v 0.515481 0.515481 h -0.51548 -0.51548 z m 1.49958,0 v -0.514871 h 0.53891 0.53892 v 0.515481 0.515481 h -0.53892 -0.53891 z m -6.01395,-1.015342 c -0.0172,-0.01718 -0.0312,-0.259693 -0.0312,-0.538912 v -0.507671 h 0.51548 0.51548 v 0.538912 0.538912 h -0.48423 c -0.26634,0 -0.4983,-0.01406 -0.51549,-0.03124 z m -3.0304,-0.531102 v -0.515481 h 0.51548 0.51548 v 0.515481 0.515481 h -0.51548 -0.51548 z m 1.50971,0.01172 0.0133,-0.503765 h 0.51548 0.51548 l 0.0133,0.503765 0.0133,0.503766 h -0.54209 -0.54208 z m 2.99916,0 0.0133,-0.503765 h 0.51549 0.51548 l 0.0133,0.503765 0.0133,0.503766 h -0.54208 -0.54209 z m 1.53632,-0.01172 v -0.515481 h 0.51548 0.51548 v 0.515481 0.515481 h -0.51548 -0.51548 z m 1.49958,0 v -0.515481 h 0.51548 0.51548 v 0.515481 0.515481 h -0.51548 -0.51548 z m 1.50971,0.01172 0.0133,-0.503765 h 0.51548 0.51549 l 0.0133,0.503765 0.0133,0.503766 h -0.54208 -0.54209 z m -9.05448,-1.511298 v -0.515481 h 0.51548 0.51548 v 0.515481 0.515482 h -0.51548 -0.51548 z m 1.49958,0.0015 v -0.516369 h 0.5405 0.54049 l -0.0133,0.503766 -0.0133,0.503766 -0.52719,0.01325 -0.5272,0.01325 v -0.517016 z m 1.49958,-0.0015 v -0.515481 h 0.51548 0.51548 v 0.515481 0.515482 h -0.51548 -0.51548 z m 1.49958,0 v -0.515481 h 0.53892 0.53891 v 0.515481 0.515482 h -0.53891 -0.53892 z m 1.54645,0 v -0.515481 h 0.51548 0.51548 v 0.515481 0.515482 h -0.51548 -0.51548 z m 1.49958,0 v -0.515481 h 0.51548 0.51548 v 0.515481 0.515482 h -0.51548 -0.51548 z m 1.49958,0.0015 v -0.516369 h 0.5405 0.5405 l -0.0133,0.503766 -0.0133,0.503766 -0.5272,0.01325 -0.52719,0.01325 v -0.517016 z"
       id="path826"
       inkscape:connector-curvature="0" />
  </g>
</svg>
