999
Inkscape export via OpenSCAD DXF Export
  0
SECTION
  2
HEADER
  9
$ACADVER
  1
AC1014
  9
$HANDSEED
  5
FFFF
  9
$MEASUREMENT
 70
     1
  0
ENDSEC
  0
SECTION
  2
TABLES
  0
TABLE
  2
VPORT
  5
8
330
0
100
AcDbSymbolTable
 70
     4
  0
VPORT
  5
2E
330
8
100
AcDbSymbolTableRecord
100
AcDbViewportTableRecord
  2
*ACTIVE
 70
     0
 10
0.0
 20
0.0
 11
1.0
 21
1.0
 12
210.0
 22
148.5
 13
0.0
 23
0.0
 14
10.0
 24
10.0
 15
10.0
 25
10.0
 16
0.0
 26
0.0
 36
1.0
 17
0.0
 27
0.0
 37
0.0
 40
341.0
 41
1.24
 42
50.0
 43
0.0
 44
0.0
 50
0.0
 51
0.0
 71
     0
 72
   100
 73
     1
 74
     3
 75
     0
 76
     0
 77
     0
 78
     0
  0
ENDTAB
  0
TABLE
  2
LTYPE
  5
5
330
0
100
AcDbSymbolTable
 70
     1
  0
LTYPE
  5
14
330
5
100
AcDbSymbolTableRecord
100
AcDbLinetypeTableRecord
  2
BYBLOCK
 70
     0
  3

 72
    65
 73
     0
 40
0.0
  0
LTYPE
  5
15
330
5
100
AcDbSymbolTableRecord
100
AcDbLinetypeTableRecord
  2
BYLAYER
 70
     0
  3

 72
    65
 73
     0
 40
0.0
  0
LTYPE
  5
16
330
5
100
AcDbSymbolTableRecord
100
AcDbLinetypeTableRecord
  2
CONTINUOUS
 70
     0
  3
Solid line
 72
    65
 73
     0
 40
0.0
  0
ENDTAB
  0
TABLE
0
TABLE
2
LAYER
5
2
330
0
100
AcDbSymbolTable
70
1
0
LAYER
5
10
330
2
100
AcDbSymbolTableRecord
100
AcDbLayerTableRecord
2
Capa_1
70
0
62
7
6
CONTINUOUS
0
ENDTAB
0
ENDSEC
  0
ENDTAB
  0
TABLE
  2
STYLE
  5
3
330
0
100
AcDbSymbolTable
 70
     1
  0
STYLE
  5
11
330
3
100
AcDbSymbolTableRecord
100
AcDbTextStyleTableRecord
  2
STANDARD
 70
     0
 40
0.0
 41
1.0
 50
0.0
 71
     0
 42
2.5
  3
txt
  4

  0
ENDTAB
  0
TABLE
  2
VIEW
  5
6
330
0
100
AcDbSymbolTable
 70
     0
  0
ENDTAB
  0
TABLE
  2
UCS
  5
7
330
0
100
AcDbSymbolTable
 70
     0
  0
ENDTAB
  0
TABLE
  2
APPID
  5
9
330
0
100
AcDbSymbolTable
 70
     2
  0
APPID
  5
12
330
9
100
AcDbSymbolTableRecord
100
AcDbRegAppTableRecord
  2
ACAD
 70
     0
  0
ENDTAB
  0
TABLE
  2
DIMSTYLE
  5
A
330
0
100
AcDbSymbolTable
 70
     1
  0
DIMSTYLE
105
27
330
A
100
AcDbSymbolTableRecord
100
AcDbDimStyleTableRecord
  2
ISO-25
 70
     0
  3

  4

  5

  6

  7

 40
1.0
 41
2.5
 42
0.625
 43
3.75
 44
1.25
 45
0.0
 46
0.0
 47
0.0
 48
0.0
140
2.5
141
2.5
142
0.0
143
0.03937007874016
144
1.0
145
0.0
146
1.0
147
0.625
 71
     0
 72
     0
 73
     0
 74
     0
 75
     0
 76
     0
 77
     1
 78
     8
170
     0
171
     3
172
     1
173
     0
174
     0
175
     0
176
     0
177
     0
178
     0
270
     2
271
     2
272
     2
273
     2
274
     3
340
11
275
     0
280
     0
281
     0
282
     0
283
     0
284
     8
285
     0
286
     0
287
     3
288
     0
  0
ENDTAB
  0
TABLE
  2
BLOCK_RECORD
  5
1
330
0
100
AcDbSymbolTable
 70
     1
  0
BLOCK_RECORD
  5
1F
330
1
100
AcDbSymbolTableRecord
100
AcDbBlockTableRecord
  2
*MODEL_SPACE
  0
BLOCK_RECORD
  5
1B
330
1
100
AcDbSymbolTableRecord
100
AcDbBlockTableRecord
  2
*PAPER_SPACE
  0
ENDTAB
  0
ENDSEC
  0
SECTION
  2
BLOCKS
  0
BLOCK
  5
20
330
1F
100
AcDbEntity
  8
0
100
AcDbBlockBegin
  2
*MODEL_SPACE
 70
     0
 10
0.0
 20
0.0
 30
0.0
  3
*MODEL_SPACE
  1

  0
ENDBLK
  5
21
330
1F
100
AcDbEntity
  8
0
100
AcDbBlockEnd
  0
BLOCK
  5
1C
330
1B
100
AcDbEntity
 67
     1
  8
0
100
AcDbBlockBegin
  2
*PAPER_SPACE
  1

  0
ENDBLK
  5
1D
330
1B
100
AcDbEntity
 67
     1
  8
0
100
AcDbBlockEnd
  0
ENDSEC
  0
SECTION
  2
ENTITIES
0
DIMENSION
5
83
100
AcDbEntity
62
256
370
-1
6
ByLayer
1
total_width
3
Standard
70
0
71
5
72
1
41
1.0
100
AcDbAlignedDimension
13
26.035608
23
0.000000
33
0.0
14
30.686598
24
0.000000
34
0.0
50
0.000000
100
AcDbRotatedDimension
0
DIMENSION
5
83
100
AcDbEntity
62
256
370
-1
6
ByLayer
1
total_minx
3
Standard
70
0
71
5
72
1
41
1.0
100
AcDbAlignedDimension
13
26.035608
23
0.000000
33
0.0
14
0.000000
24
0.000000
34
0.0
50
0.000000
100
AcDbRotatedDimension
0
DIMENSION
5
83
100
AcDbEntity
62
256
370
-1
6
ByLayer
1
total_maxx
3
Standard
70
0
71
5
72
1
41
1.0
100
AcDbAlignedDimension
13
0.000000
23
0.000000
33
0.0
14
30.686598
24
0.000000
34
0.0
50
0.000000
100
AcDbRotatedDimension
0
DIMENSION
5
83
100
AcDbEntity
62
256
370
-1
6
ByLayer
1
total_height
3
Standard
70
0
71
5
72
1
41
1.0
100
AcDbAlignedDimension
13
0.000000
23
-23.758755
33
0.0
14
0.000000
24
-17.235738
34
0.0
50
90.000000
100
AcDbRotatedDimension
0
DIMENSION
5
83
100
AcDbEntity
62
256
370
-1
6
ByLayer
1
total_miny
3
Standard
70
0
71
5
72
1
41
1.0
100
AcDbAlignedDimension
13
-23.758755
23
0.000000
33
0.0
14
0.000000
24
0.000000
34
0.0
50
0.000000
100
AcDbRotatedDimension
0
DIMENSION
5
83
100
AcDbEntity
62
256
370
-1
6
ByLayer
1
total_maxy
3
Standard
70
0
71
5
72
1
41
1.0
100
AcDbAlignedDimension
13
0.000000
23
0.000000
33
0.0
14
-17.235738
24
0.000000
34
0.0
50
0.000000
100
AcDbRotatedDimension
0
DIMENSION
8
Capa_1
5
83
100
AcDbEntity
62
256
370
-1
6
ByLayer
1
Capa_1_width
3
Standard
70
0
71
5
72
1
41
1.0
100
AcDbAlignedDimension
13
26.035608
23
0.000000
33
0.0
14
30.686598
24
0.000000
34
0.0
50
0.000000
100
AcDbRotatedDimension
0
DIMENSION
8
Capa_1
5
83
100
AcDbEntity
62
256
370
-1
6
ByLayer
1
Capa_1_minx
3
Standard
70
0
71
5
72
1
41
1.0
100
AcDbAlignedDimension
13
26.035608
23
0.000000
33
0.0
14
0.000000
24
0.000000
34
0.0
50
0.000000
100
AcDbRotatedDimension
0
DIMENSION
8
Capa_1
5
83
100
AcDbEntity
62
256
370
-1
6
ByLayer
1
Capa_1_maxx
3
Standard
70
0
71
5
72
1
41
1.0
100
AcDbAlignedDimension
13
0.000000
23
0.000000
33
0.0
14
30.686598
24
0.000000
34
0.0
50
0.000000
100
AcDbRotatedDimension
0
DIMENSION
8
Capa_1
5
83
100
AcDbEntity
62
256
370
-1
6
ByLayer
1
Capa_1_height
3
Standard
70
0
71
5
72
1
41
1.0
100
AcDbAlignedDimension
13
0.000000
23
-23.758755
33
0.0
14
0.000000
24
-17.235738
34
0.0
50
90.000000
100
AcDbRotatedDimension
0
DIMENSION
8
Capa_1
5
83
100
AcDbEntity
62
256
370
-1
6
ByLayer
1
Capa_1_miny
3
Standard
70
0
71
5
72
1
41
1.0
100
AcDbAlignedDimension
13
-23.758755
23
0.000000
33
0.0
14
0.000000
24
0.000000
34
0.0
50
0.000000
100
AcDbRotatedDimension
0
DIMENSION
8
Capa_1
5
83
100
AcDbEntity
62
256
370
-1
6
ByLayer
1
Capa_1_maxy
3
Standard
70
0
71
5
72
1
41
1.0
100
AcDbAlignedDimension
13
0.000000
23
0.000000
33
0.0
14
-17.235738
24
0.000000
34
0.0
50
0.000000
100
AcDbRotatedDimension
62
0
0
LWPOLYLINE
100
AcDbPolyline
8
Capa_1
90
25
70
0
10
26.307141
20
-23.690384
30
0.0
10
26.433664
20
-23.586997
30
0.0
10
26.490064
20
-23.572491
30
0.0
10
26.486564
20
-23.167008
30
0.0
10
26.483064
20
-22.761526
30
0.0
10
26.397100
20
-22.741036
30
0.0
10
26.311135
20
-22.720547
30
0.0
10
26.307099
20
-22.657724
30
0.0
10
26.303063
20
-22.594904
30
0.0
10
26.602052
20
-22.594904
30
0.0
10
26.901041
20
-22.594904
30
0.0
10
26.897034
20
-22.664337
30
0.0
10
26.893026
20
-22.733772
30
0.0
10
26.810369
20
-22.745541
30
0.0
10
26.727709
20
-22.757309
30
0.0
10
26.727709
20
-23.171815
30
0.0
10
26.727709
20
-23.586320
30
0.0
10
26.757466
20
-23.593235
30
0.0
10
26.840126
20
-23.610563
30
0.0
10
26.893026
20
-23.620949
30
0.0
10
26.897034
20
-23.689850
30
0.0
10
26.901041
20
-23.758749
30
0.0
10
26.602086
20
-23.758749
30
0.0
10
26.303131
20
-23.758749
30
0.0
10
26.307141
20
-23.690384
30
0.0
62
0
0
LWPOLYLINE
100
AcDbPolyline
8
Capa_1
90
43
70
0
10
27.124505
20
-23.688408
30
0.0
10
27.124505
20
-23.618087
30
0.0
10
27.223889
20
-23.594663
30
0.0
10
27.323274
20
-23.571238
30
0.0
10
27.319774
20
-23.173437
30
0.0
10
27.316275
20
-22.775637
30
0.0
10
27.283212
20
-22.765336
30
0.0
10
27.193940
20
-22.740585
30
0.0
10
27.137730
20
-22.726135
30
0.0
10
27.137730
20
-22.660515
30
0.0
10
27.137730
20
-22.594899
30
0.0
10
27.372482
20
-22.595099
30
0.0
10
27.607235
20
-22.595300
30
0.0
10
27.732533
20
-22.790166
30
0.0
10
27.986942
20
-23.183414
30
0.0
10
28.116053
20
-23.381796
30
0.0
10
28.116251
20
-23.074304
30
0.0
10
28.097257
20
-22.766812
30
0.0
10
28.011292
20
-22.752503
30
0.0
10
27.944513
20
-22.738194
30
0.0
10
27.944513
20
-22.666552
30
0.0
10
27.944513
20
-22.594907
30
0.0
10
28.202410
20
-22.594907
30
0.0
10
28.460308
20
-22.594907
30
0.0
10
28.460308
20
-22.660781
30
0.0
10
28.423938
20
-22.734895
30
0.0
10
28.347890
20
-22.752506
30
0.0
10
28.308215
20
-22.761876
30
0.0
10
28.304744
20
-23.260300
30
0.0
10
28.301273
20
-23.758724
30
0.0
10
28.185708
20
-23.758622
30
0.0
10
28.070144
20
-23.758524
30
0.0
10
27.785797
20
-23.309181
30
0.0
10
27.491315
20
-22.859606
30
0.0
10
27.484711
20
-23.212774
30
0.0
10
27.488238
20
-23.566172
30
0.0
10
27.570898
20
-23.590838
30
0.0
10
27.653559
20
-23.615505
30
0.0
10
27.653559
20
-23.687099
30
0.0
10
27.653559
20
-23.758690
30
0.0
10
27.389049
20
-23.758690
30
0.0
10
27.124539
20
-23.758690
30
0.0
10
27.124505
20
-23.688408
30
0.0
62
0
0
LWPOLYLINE
100
AcDbPolyline
8
Capa_1
90
33
70
0
10
28.796979
20
-23.700149
30
0.0
10
28.795850
20
-23.629350
30
0.0
10
28.903436
20
-23.600019
30
0.0
10
29.008341
20
-23.574930
30
0.0
10
29.017570
20
-23.156961
30
0.0
10
29.021944
20
-22.746971
30
0.0
10
28.923008
20
-22.751685
30
0.0
10
28.821721
20
-22.758458
30
0.0
10
28.798241
20
-22.886000
30
0.0
10
28.690765
20
-23.084235
30
0.0
10
28.619075
20
-23.084235
30
0.0
10
28.619075
20
-22.839563
30
0.0
10
28.619075
20
-22.594893
30
0.0
10
29.141482
20
-22.594893
30
0.0
10
29.663887
20
-22.594893
30
0.0
10
29.663887
20
-22.839563
30
0.0
10
29.663887
20
-23.084235
30
0.0
10
29.584534
20
-23.084235
30
0.0
10
29.504761
20
-23.074301
30
0.0
10
29.485344
20
-22.925516
30
0.0
10
29.465928
20
-22.777539
30
0.0
10
29.402687
20
-22.760154
30
0.0
10
29.303495
20
-22.745055
30
0.0
10
29.267125
20
-22.738254
30
0.0
10
29.267125
20
-23.154492
30
0.0
10
29.283663
20
-23.576860
30
0.0
10
29.389468
20
-23.600538
30
0.0
10
29.478740
20
-23.618093
30
0.0
10
29.478740
20
-23.688405
30
0.0
10
29.478740
20
-23.758721
30
0.0
10
29.142301
20
-23.758721
30
0.0
10
28.805861
20
-23.758721
30
0.0
10
28.796979
20
-23.700149
30
0.0
62
0
0
LWPOLYLINE
100
AcDbPolyline
8
Capa_1
90
24
70
0
10
29.825117
20
-23.689678
30
0.0
10
29.829125
20
-23.620627
30
0.0
10
29.888640
20
-23.604935
30
0.0
10
29.984525
20
-23.581144
30
0.0
10
30.020895
20
-23.573073
30
0.0
10
30.020895
20
-23.170849
30
0.0
10
30.020895
20
-22.768626
30
0.0
10
29.920573
20
-22.746303
30
0.0
10
29.827815
20
-22.695807
30
0.0
10
29.835548
20
-22.631257
30
0.0
10
29.835746
20
-22.594887
30
0.0
10
30.126709
20
-22.594887
30
0.0
10
30.417668
20
-22.594887
30
0.0
10
30.417668
20
-22.666087
30
0.0
10
30.301757
20
-22.753412
30
0.0
10
30.245360
20
-22.753612
30
0.0
10
30.248860
20
-23.166244
30
0.0
10
30.252360
20
-23.578872
30
0.0
10
30.338271
20
-23.600039
30
0.0
10
30.424916
20
-23.713786
30
0.0
10
30.416477
20
-23.758755
30
0.0
10
30.118815
20
-23.758755
30
0.0
10
29.821149
20
-23.758755
30
0.0
10
29.825117
20
-23.689678
30
0.0
62
0
0
LWPOLYLINE
100
AcDbPolyline
8
Capa_1
90
19
70
0
10
27.997387
20
-21.855587
30
0.0
10
27.273615
20
-21.614762
30
0.0
10
26.681263
20
-21.164946
30
0.0
10
26.232433
20
-20.499914
30
0.0
10
26.035608
20
-19.746945
30
0.0
10
26.096671
20
-18.972238
30
0.0
10
26.421506
20
-18.241994
30
0.0
10
27.107500
20
-17.569083
30
0.0
10
27.970494
20
-17.235738
30
0.0
10
28.895249
20
-17.261769
30
0.0
10
29.766525
20
-17.666986
30
0.0
10
30.252874
20
-18.159771
30
0.0
10
30.574677
20
-18.776078
30
0.0
10
30.686598
20
-19.838668
30
0.0
10
30.312927
20
-20.837249
30
0.0
10
29.645618
20
-21.499748
30
0.0
10
28.771080
20
-21.848542
30
0.0
10
27.997387
20
-21.855598
30
0.0
10
27.997387
20
-21.855587
30
0.0
62
0
0
LWPOLYLINE
100
AcDbPolyline
8
Capa_1
90
19
70
0
10
28.718177
20
-21.702718
30
0.0
10
29.656530
20
-21.309321
30
0.0
10
30.318916
20
-20.529675
30
0.0
10
30.552951
20
-19.568207
30
0.0
10
30.337514
20
-18.592764
30
0.0
10
29.988238
20
-18.076829
30
0.0
10
29.511416
20
-17.674564
30
0.0
10
28.738288
20
-17.382870
30
0.0
10
27.996309
20
-17.383005
30
0.0
10
27.166553
20
-17.712885
30
0.0
10
26.535115
20
-18.342899
30
0.0
10
26.264990
20
-18.919446
30
0.0
10
26.182235
20
-19.546418
30
0.0
10
26.315478
20
-20.305121
30
0.0
10
26.702393
20
-20.963467
30
0.0
10
27.363403
20
-21.488099
30
0.0
10
28.195758
20
-21.726981
30
0.0
10
28.718166
20
-21.702710
30
0.0
10
28.718177
20
-21.702718
30
0.0
62
0
0
LWPOLYLINE
100
AcDbPolyline
8
Capa_1
90
9
70
0
10
26.939350
20
-20.828842
30
0.0
10
26.939350
20
-20.676300
30
0.0
10
27.081522
20
-20.680054
30
0.0
10
27.223697
20
-20.683808
30
0.0
10
27.227423
20
-20.832595
30
0.0
10
27.231148
20
-20.981383
30
0.0
10
27.085234
20
-20.981383
30
0.0
10
26.939322
20
-20.981383
30
0.0
10
26.939350
20
-20.828842
30
0.0
62
0
0
LWPOLYLINE
100
AcDbPolyline
8
Capa_1
90
10
70
0
10
27.368427
20
-20.964356
30
0.0
10
27.365350
20
-20.815120
30
0.0
10
27.369160
20
-20.683808
30
0.0
10
27.514640
20
-20.683808
30
0.0
10
27.660120
20
-20.683808
30
0.0
10
27.660120
20
-20.829287
30
0.0
10
27.660120
20
-20.974767
30
0.0
10
27.517705
20
-20.978521
30
0.0
10
27.368410
20
-20.964353
30
0.0
10
27.368427
20
-20.964356
30
0.0
62
0
0
LWPOLYLINE
100
AcDbPolyline
8
Capa_1
90
9
70
0
10
27.785780
20
-20.829287
30
0.0
10
27.785780
20
-20.677195
30
0.0
10
27.931260
20
-20.677195
30
0.0
10
28.076739
20
-20.677195
30
0.0
10
28.076739
20
-20.829287
30
0.0
10
28.076739
20
-20.981380
30
0.0
10
27.931260
20
-20.981380
30
0.0
10
27.785780
20
-20.981380
30
0.0
10
27.785780
20
-20.829287
30
0.0
62
0
0
LWPOLYLINE
100
AcDbPolyline
8
Capa_1
90
10
70
0
10
28.214859
20
-20.964356
30
0.0
10
28.211783
20
-20.815120
30
0.0
10
28.215593
20
-20.683808
30
0.0
10
28.361073
20
-20.683808
30
0.0
10
28.506555
20
-20.683808
30
0.0
10
28.506555
20
-20.829287
30
0.0
10
28.506555
20
-20.974767
30
0.0
10
28.364138
20
-20.978521
30
0.0
10
28.214845
20
-20.964353
30
0.0
10
28.214859
20
-20.964356
30
0.0
62
0
0
LWPOLYLINE
100
AcDbPolyline
8
Capa_1
90
9
70
0
10
28.648310
20
-20.832595
30
0.0
10
28.652035
20
-20.683808
30
0.0
10
28.794208
20
-20.680054
30
0.0
10
28.936383
20
-20.676300
30
0.0
10
28.936383
20
-20.828839
30
0.0
10
28.936383
20
-20.981380
30
0.0
10
28.790468
20
-20.981380
30
0.0
10
28.644556
20
-20.981380
30
0.0
10
28.648310
20
-20.832595
30
0.0
62
0
0
LWPOLYLINE
100
AcDbPolyline
8
Capa_1
90
9
70
0
10
29.068652
20
-20.829293
30
0.0
10
29.068652
20
-20.677201
30
0.0
10
29.214132
20
-20.677201
30
0.0
10
29.359612
20
-20.677201
30
0.0
10
29.359612
20
-20.829293
30
0.0
10
29.359612
20
-20.981386
30
0.0
10
29.214132
20
-20.981386
30
0.0
10
29.068652
20
-20.981386
30
0.0
10
29.068652
20
-20.829293
30
0.0
62
0
0
LWPOLYLINE
100
AcDbPolyline
8
Capa_1
90
10
70
0
10
29.497728
20
-20.964362
30
0.0
10
29.494652
20
-20.815126
30
0.0
10
29.498462
20
-20.683813
30
0.0
10
29.643942
20
-20.683813
30
0.0
10
29.789422
20
-20.683813
30
0.0
10
29.789422
20
-20.829293
30
0.0
10
29.789422
20
-20.974773
30
0.0
10
29.647007
20
-20.978527
30
0.0
10
29.497711
20
-20.964359
30
0.0
10
29.497728
20
-20.964362
30
0.0
62
0
0
LWPOLYLINE
100
AcDbPolyline
8
Capa_1
90
9
70
0
10
26.939350
20
-20.399466
30
0.0
10
26.939350
20
-20.253983
30
0.0
10
27.084830
20
-20.253983
30
0.0
10
27.230310
20
-20.253983
30
0.0
10
27.230310
20
-20.399466
30
0.0
10
27.230310
20
-20.544946
30
0.0
10
27.084830
20
-20.544946
30
0.0
10
26.939350
20
-20.544946
30
0.0
10
26.939350
20
-20.399466
30
0.0
62
0
0
LWPOLYLINE
100
AcDbPolyline
8
Capa_1
90
9
70
0
10
27.362565
20
-20.399466
30
0.0
10
27.362565
20
-20.253983
30
0.0
10
27.514657
20
-20.253983
30
0.0
10
27.666750
20
-20.253983
30
0.0
10
27.666750
20
-20.399466
30
0.0
10
27.666750
20
-20.544946
30
0.0
10
27.514657
20
-20.544946
30
0.0
10
27.362565
20
-20.544946
30
0.0
10
27.362565
20
-20.399466
30
0.0
62
0
0
LWPOLYLINE
100
AcDbPolyline
8
Capa_1
90
9
70
0
10
27.785780
20
-20.399466
30
0.0
10
27.785780
20
-20.253983
30
0.0
10
27.931260
20
-20.253983
30
0.0
10
28.076739
20
-20.253983
30
0.0
10
28.076739
20
-20.399466
30
0.0
10
28.076739
20
-20.544946
30
0.0
10
27.931260
20
-20.544946
30
0.0
10
27.785780
20
-20.544946
30
0.0
10
27.785780
20
-20.399466
30
0.0
62
0
0
LWPOLYLINE
100
AcDbPolyline
8
Capa_1
90
9
70
0
10
28.208994
20
-20.399466
30
0.0
10
28.208994
20
-20.253983
30
0.0
10
28.361090
20
-20.253983
30
0.0
10
28.513182
20
-20.253983
30
0.0
10
28.513182
20
-20.399466
30
0.0
10
28.513182
20
-20.544946
30
0.0
10
28.361090
20
-20.544946
30
0.0
10
28.208994
20
-20.544946
30
0.0
10
28.208994
20
-20.399466
30
0.0
62
0
0
LWPOLYLINE
100
AcDbPolyline
8
Capa_1
90
9
70
0
10
28.645437
20
-20.399466
30
0.0
10
28.645437
20
-20.253983
30
0.0
10
28.790917
20
-20.253983
30
0.0
10
28.936397
20
-20.253983
30
0.0
10
28.936397
20
-20.399466
30
0.0
10
28.936397
20
-20.544946
30
0.0
10
28.790917
20
-20.544946
30
0.0
10
28.645437
20
-20.544946
30
0.0
10
28.645437
20
-20.399466
30
0.0
62
0
0
LWPOLYLINE
100
AcDbPolyline
8
Capa_1
90
9
70
0
10
29.068652
20
-20.399466
30
0.0
10
29.068652
20
-20.253983
30
0.0
10
29.214132
20
-20.253983
30
0.0
10
29.359612
20
-20.253983
30
0.0
10
29.359612
20
-20.399466
30
0.0
10
29.359612
20
-20.544946
30
0.0
10
29.214132
20
-20.544946
30
0.0
10
29.068652
20
-20.544946
30
0.0
10
29.068652
20
-20.399466
30
0.0
62
0
0
LWPOLYLINE
100
AcDbPolyline
8
Capa_1
90
9
70
0
10
29.491867
20
-20.399466
30
0.0
10
29.491867
20
-20.253983
30
0.0
10
29.643959
20
-20.253983
30
0.0
10
29.796054
20
-20.253983
30
0.0
10
29.796054
20
-20.399466
30
0.0
10
29.796054
20
-20.544946
30
0.0
10
29.643959
20
-20.544946
30
0.0
10
29.491867
20
-20.544946
30
0.0
10
29.491867
20
-20.399466
30
0.0
62
0
0
LWPOLYLINE
100
AcDbPolyline
8
Capa_1
90
9
70
0
10
26.939350
20
-19.963020
30
0.0
10
26.939350
20
-19.817541
30
0.0
10
27.084830
20
-19.817541
30
0.0
10
27.230310
20
-19.817541
30
0.0
10
27.230310
20
-19.963020
30
0.0
10
27.230310
20
-20.108503
30
0.0
10
27.084830
20
-20.108503
30
0.0
10
26.939350
20
-20.108503
30
0.0
10
26.939350
20
-19.963020
30
0.0
62
0
0
LWPOLYLINE
100
AcDbPolyline
8
Capa_1
90
9
70
0
10
27.362565
20
-19.962456
30
0.0
10
27.362565
20
-19.816544
30
0.0
10
27.511352
20
-19.820283
30
0.0
10
27.660137
20
-19.824009
30
0.0
10
27.663891
20
-19.966181
30
0.0
10
27.667644
20
-20.108356
30
0.0
10
27.515103
20
-20.108356
30
0.0
10
27.362562
20
-20.108356
30
0.0
10
27.362565
20
-19.962456
30
0.0
62
0
0
LWPOLYLINE
100
AcDbPolyline
8
Capa_1
90
9
70
0
10
27.785780
20
-19.963020
30
0.0
10
27.785780
20
-19.817541
30
0.0
10
27.931260
20
-19.817541
30
0.0
10
28.076739
20
-19.817541
30
0.0
10
28.076739
20
-19.963020
30
0.0
10
28.076739
20
-20.108503
30
0.0
10
27.931260
20
-20.108503
30
0.0
10
27.785780
20
-20.108503
30
0.0
10
27.785780
20
-19.963020
30
0.0
62
0
0
LWPOLYLINE
100
AcDbPolyline
8
Capa_1
90
9
70
0
10
28.211853
20
-19.966322
30
0.0
10
28.215607
20
-19.824147
30
0.0
10
28.361090
20
-19.824147
30
0.0
10
28.506570
20
-19.824147
30
0.0
10
28.510323
20
-19.966322
30
0.0
10
28.514077
20
-20.108498
30
0.0
10
28.361090
20
-20.108498
30
0.0
10
28.208100
20
-20.108498
30
0.0
10
28.211853
20
-19.966322
30
0.0
62
0
0
LWPOLYLINE
100
AcDbPolyline
8
Capa_1
90
9
70
0
10
28.645437
20
-19.963020
30
0.0
10
28.645437
20
-19.817541
30
0.0
10
28.790917
20
-19.817541
30
0.0
10
28.936397
20
-19.817541
30
0.0
10
28.936397
20
-19.963020
30
0.0
10
28.936397
20
-20.108503
30
0.0
10
28.790917
20
-20.108503
30
0.0
10
28.645437
20
-20.108503
30
0.0
10
28.645437
20
-19.963020
30
0.0
62
0
0
LWPOLYLINE
100
AcDbPolyline
8
Capa_1
90
9
70
0
10
29.068652
20
-19.963020
30
0.0
10
29.068652
20
-19.817541
30
0.0
10
29.214132
20
-19.817541
30
0.0
10
29.359612
20
-19.817541
30
0.0
10
29.359612
20
-19.963020
30
0.0
10
29.359612
20
-20.108503
30
0.0
10
29.214132
20
-20.108503
30
0.0
10
29.068652
20
-20.108503
30
0.0
10
29.068652
20
-19.963020
30
0.0
62
0
0
LWPOLYLINE
100
AcDbPolyline
8
Capa_1
90
10
70
0
10
29.491867
20
-19.962456
30
0.0
10
29.491867
20
-19.816544
30
0.0
10
29.640654
20
-19.820283
30
0.0
10
29.789439
20
-19.824009
30
0.0
10
29.793192
20
-19.966181
30
0.0
10
29.796946
20
-20.108356
30
0.0
10
29.644405
20
-20.108356
30
0.0
10
29.491864
20
-20.108356
30
0.0
10
29.491864
20
-19.962444
30
0.0
10
29.491867
20
-19.962456
30
0.0
62
0
0
LWPOLYLINE
100
AcDbPolyline
8
Capa_1
90
10
70
0
10
26.948167
20
-19.689565
30
0.0
10
26.939361
20
-19.544085
30
0.0
10
26.939361
20
-19.407422
30
0.0
10
27.091454
20
-19.407422
30
0.0
10
27.243546
20
-19.407422
30
0.0
10
27.243546
20
-19.552902
30
0.0
10
27.243546
20
-19.698382
30
0.0
10
27.100270
20
-19.698382
30
0.0
10
26.948178
20
-19.689566
30
0.0
10
26.948167
20
-19.689565
30
0.0
62
0
0
LWPOLYLINE
100
AcDbPolyline
8
Capa_1
90
9
70
0
10
27.375790
20
-19.552902
30
0.0
10
27.375790
20
-19.407422
30
0.0
10
27.521270
20
-19.407422
30
0.0
10
27.666750
20
-19.407422
30
0.0
10
27.666750
20
-19.552902
30
0.0
10
27.666750
20
-19.698382
30
0.0
10
27.521270
20
-19.698382
30
0.0
10
27.375790
20
-19.698382
30
0.0
10
27.375790
20
-19.552902
30
0.0
62
0
0
LWPOLYLINE
100
AcDbPolyline
8
Capa_1
90
9
70
0
10
27.799005
20
-19.552902
30
0.0
10
27.799005
20
-19.407422
30
0.0
10
27.944485
20
-19.407422
30
0.0
10
28.089967
20
-19.407422
30
0.0
10
28.089967
20
-19.552902
30
0.0
10
28.089967
20
-19.698382
30
0.0
10
27.944485
20
-19.698382
30
0.0
10
27.799005
20
-19.698382
30
0.0
10
27.799005
20
-19.552902
30
0.0
62
0
0
LWPOLYLINE
100
AcDbPolyline
8
Capa_1
90
9
70
0
10
28.222222
20
-19.552902
30
0.0
10
28.222222
20
-19.407422
30
0.0
10
28.367702
20
-19.407422
30
0.0
10
28.513182
20
-19.407422
30
0.0
10
28.513182
20
-19.552902
30
0.0
10
28.513182
20
-19.698382
30
0.0
10
28.367702
20
-19.698382
30
0.0
10
28.222222
20
-19.698382
30
0.0
10
28.222222
20
-19.552902
30
0.0
62
0
0
LWPOLYLINE
100
AcDbPolyline
8
Capa_1
90
9
70
0
10
28.658662
20
-19.552902
30
0.0
10
28.658662
20
-19.407422
30
0.0
10
28.804142
20
-19.407422
30
0.0
10
28.949622
20
-19.407422
30
0.0
10
28.949622
20
-19.552902
30
0.0
10
28.949622
20
-19.698382
30
0.0
10
28.804142
20
-19.698382
30
0.0
10
28.658662
20
-19.698382
30
0.0
10
28.658662
20
-19.552902
30
0.0
62
0
0
LWPOLYLINE
100
AcDbPolyline
8
Capa_1
90
9
70
0
10
29.081877
20
-19.552902
30
0.0
10
29.081877
20
-19.407422
30
0.0
10
29.227357
20
-19.407422
30
0.0
10
29.372837
20
-19.407422
30
0.0
10
29.372837
20
-19.552902
30
0.0
10
29.372837
20
-19.698382
30
0.0
10
29.227357
20
-19.698382
30
0.0
10
29.081877
20
-19.698382
30
0.0
10
29.081877
20
-19.552902
30
0.0
62
0
0
LWPOLYLINE
100
AcDbPolyline
8
Capa_1
90
9
70
0
10
29.505092
20
-19.552902
30
0.0
10
29.505092
20
-19.407422
30
0.0
10
29.650571
20
-19.407422
30
0.0
10
29.796054
20
-19.407422
30
0.0
10
29.796054
20
-19.552902
30
0.0
10
29.796054
20
-19.698382
30
0.0
10
29.650571
20
-19.698382
30
0.0
10
29.505092
20
-19.698382
30
0.0
10
29.505092
20
-19.552902
30
0.0
62
0
0
LWPOLYLINE
100
AcDbPolyline
8
Capa_1
90
9
70
0
10
26.939350
20
-19.116461
30
0.0
10
26.939350
20
-18.971153
30
0.0
10
27.084830
20
-18.971153
30
0.0
10
27.230310
20
-18.971153
30
0.0
10
27.230310
20
-19.116634
30
0.0
10
27.230310
20
-19.262114
30
0.0
10
27.084830
20
-19.262114
30
0.0
10
26.939350
20
-19.262114
30
0.0
10
26.939350
20
-19.116461
30
0.0
62
0
0
LWPOLYLINE
100
AcDbPolyline
8
Capa_1
90
9
70
0
10
27.362565
20
-19.116461
30
0.0
10
27.362565
20
-18.971153
30
0.0
10
27.514657
20
-18.971153
30
0.0
10
27.666750
20
-18.971153
30
0.0
10
27.666750
20
-19.116634
30
0.0
10
27.666750
20
-19.262114
30
0.0
10
27.514657
20
-19.262114
30
0.0
10
27.362565
20
-19.262114
30
0.0
10
27.362565
20
-19.116461
30
0.0
62
0
0
LWPOLYLINE
100
AcDbPolyline
8
Capa_1
90
9
70
0
10
27.785780
20
-19.116461
30
0.0
10
27.785780
20
-18.971153
30
0.0
10
27.931260
20
-18.971153
30
0.0
10
28.076739
20
-18.971153
30
0.0
10
28.076739
20
-19.116634
30
0.0
10
28.076739
20
-19.262114
30
0.0
10
27.931260
20
-19.262114
30
0.0
10
27.785780
20
-19.262114
30
0.0
10
27.785780
20
-19.116461
30
0.0
62
0
0
LWPOLYLINE
100
AcDbPolyline
8
Capa_1
90
9
70
0
10
28.208994
20
-19.116461
30
0.0
10
28.208994
20
-18.971153
30
0.0
10
28.361090
20
-18.971153
30
0.0
10
28.513182
20
-18.971153
30
0.0
10
28.513182
20
-19.116634
30
0.0
10
28.513182
20
-19.262114
30
0.0
10
28.361090
20
-19.262114
30
0.0
10
28.208994
20
-19.262114
30
0.0
10
28.208994
20
-19.116461
30
0.0
62
0
0
LWPOLYLINE
100
AcDbPolyline
8
Capa_1
90
9
70
0
10
28.645437
20
-19.116461
30
0.0
10
28.645437
20
-18.971153
30
0.0
10
28.790917
20
-18.971153
30
0.0
10
28.936397
20
-18.971153
30
0.0
10
28.936397
20
-19.116634
30
0.0
10
28.936397
20
-19.262114
30
0.0
10
28.790917
20
-19.262114
30
0.0
10
28.645437
20
-19.262114
30
0.0
10
28.645437
20
-19.116461
30
0.0
62
0
0
LWPOLYLINE
100
AcDbPolyline
8
Capa_1
90
9
70
0
10
29.068652
20
-19.116461
30
0.0
10
29.068652
20
-18.971153
30
0.0
10
29.214132
20
-18.971153
30
0.0
10
29.359612
20
-18.971153
30
0.0
10
29.359612
20
-19.116634
30
0.0
10
29.359612
20
-19.262114
30
0.0
10
29.214132
20
-19.262114
30
0.0
10
29.068652
20
-19.262114
30
0.0
10
29.068652
20
-19.116461
30
0.0
62
0
0
LWPOLYLINE
100
AcDbPolyline
8
Capa_1
90
9
70
0
10
29.491867
20
-19.116461
30
0.0
10
29.491867
20
-18.971153
30
0.0
10
29.643959
20
-18.971153
30
0.0
10
29.796054
20
-18.971153
30
0.0
10
29.796054
20
-19.116634
30
0.0
10
29.796054
20
-19.262114
30
0.0
10
29.643959
20
-19.262114
30
0.0
10
29.491867
20
-19.262114
30
0.0
10
29.491867
20
-19.116461
30
0.0
62
0
0
LWPOLYLINE
100
AcDbPolyline
8
Capa_1
90
10
70
0
10
27.794596
20
-18.829909
30
0.0
10
27.785791
20
-18.677816
30
0.0
10
27.785791
20
-18.534540
30
0.0
10
27.931271
20
-18.534540
30
0.0
10
28.076751
20
-18.534540
30
0.0
10
28.076751
20
-18.686633
30
0.0
10
28.076751
20
-18.838726
30
0.0
10
27.940090
20
-18.838726
30
0.0
10
27.794608
20
-18.829910
30
0.0
10
27.794596
20
-18.829909
30
0.0
62
0
0
LWPOLYLINE
100
AcDbPolyline
8
Capa_1
90
9
70
0
10
26.939350
20
-18.680020
30
0.0
10
26.939350
20
-18.534540
30
0.0
10
27.084830
20
-18.534540
30
0.0
10
27.230310
20
-18.534540
30
0.0
10
27.230310
20
-18.680020
30
0.0
10
27.230310
20
-18.825501
30
0.0
10
27.084830
20
-18.825501
30
0.0
10
26.939350
20
-18.825501
30
0.0
10
26.939350
20
-18.680020
30
0.0
62
0
0
LWPOLYLINE
100
AcDbPolyline
8
Capa_1
90
9
70
0
10
27.365424
20
-18.683328
30
0.0
10
27.369177
20
-18.541154
30
0.0
10
27.514657
20
-18.541154
30
0.0
10
27.660137
20
-18.541154
30
0.0
10
27.663891
20
-18.683328
30
0.0
10
27.667644
20
-18.825502
30
0.0
10
27.514654
20
-18.825502
30
0.0
10
27.361667
20
-18.825502
30
0.0
10
27.365424
20
-18.683328
30
0.0
62
0
0
LWPOLYLINE
100
AcDbPolyline
8
Capa_1
90
9
70
0
10
28.211853
20
-18.683328
30
0.0
10
28.215607
20
-18.541154
30
0.0
10
28.361090
20
-18.541154
30
0.0
10
28.506570
20
-18.541154
30
0.0
10
28.510323
20
-18.683328
30
0.0
10
28.514077
20
-18.825502
30
0.0
10
28.361090
20
-18.825502
30
0.0
10
28.208100
20
-18.825502
30
0.0
10
28.211853
20
-18.683328
30
0.0
62
0
0
LWPOLYLINE
100
AcDbPolyline
8
Capa_1
90
9
70
0
10
28.645437
20
-18.680020
30
0.0
10
28.645437
20
-18.534540
30
0.0
10
28.790917
20
-18.534540
30
0.0
10
28.936397
20
-18.534540
30
0.0
10
28.936397
20
-18.680020
30
0.0
10
28.936397
20
-18.825501
30
0.0
10
28.790917
20
-18.825501
30
0.0
10
28.645437
20
-18.825501
30
0.0
10
28.645437
20
-18.680020
30
0.0
62
0
0
LWPOLYLINE
100
AcDbPolyline
8
Capa_1
90
9
70
0
10
29.068652
20
-18.680020
30
0.0
10
29.068652
20
-18.534540
30
0.0
10
29.214132
20
-18.534540
30
0.0
10
29.359612
20
-18.534540
30
0.0
10
29.359612
20
-18.680020
30
0.0
10
29.359612
20
-18.825501
30
0.0
10
29.214132
20
-18.825501
30
0.0
10
29.068652
20
-18.825501
30
0.0
10
29.068652
20
-18.680020
30
0.0
62
0
0
LWPOLYLINE
100
AcDbPolyline
8
Capa_1
90
9
70
0
10
29.494726
20
-18.683328
30
0.0
10
29.498479
20
-18.541154
30
0.0
10
29.643959
20
-18.541154
30
0.0
10
29.789442
20
-18.541154
30
0.0
10
29.793195
20
-18.683328
30
0.0
10
29.796949
20
-18.825502
30
0.0
10
29.643962
20
-18.825502
30
0.0
10
29.490972
20
-18.825502
30
0.0
10
29.494726
20
-18.683328
30
0.0
62
0
0
LWPOLYLINE
100
AcDbPolyline
8
Capa_1
90
9
70
0
10
26.939350
20
-18.256806
30
0.0
10
26.939350
20
-18.111326
30
0.0
10
27.084830
20
-18.111326
30
0.0
10
27.230310
20
-18.111326
30
0.0
10
27.230310
20
-18.256806
30
0.0
10
27.230310
20
-18.402287
30
0.0
10
27.084830
20
-18.402287
30
0.0
10
26.939350
20
-18.402287
30
0.0
10
26.939350
20
-18.256806
30
0.0
62
0
0
LWPOLYLINE
100
AcDbPolyline
8
Capa_1
90
10
70
0
10
27.362565
20
-18.257230
30
0.0
10
27.362565
20
-18.111499
30
0.0
10
27.515106
20
-18.111499
30
0.0
10
27.667644
20
-18.111499
30
0.0
10
27.663891
20
-18.253673
30
0.0
10
27.660137
20
-18.395847
30
0.0
10
27.511352
20
-18.399586
30
0.0
10
27.362565
20
-18.403326
30
0.0
10
27.362565
20
-18.257412
30
0.0
10
27.362565
20
-18.257230
30
0.0
62
0
0
LWPOLYLINE
100
AcDbPolyline
8
Capa_1
90
9
70
0
10
27.785780
20
-18.256806
30
0.0
10
27.785780
20
-18.111326
30
0.0
10
27.931260
20
-18.111326
30
0.0
10
28.076739
20
-18.111326
30
0.0
10
28.076739
20
-18.256806
30
0.0
10
28.076739
20
-18.402287
30
0.0
10
27.931260
20
-18.402287
30
0.0
10
27.785780
20
-18.402287
30
0.0
10
27.785780
20
-18.256806
30
0.0
62
0
0
LWPOLYLINE
100
AcDbPolyline
8
Capa_1
90
9
70
0
10
28.208994
20
-18.256806
30
0.0
10
28.208994
20
-18.111326
30
0.0
10
28.361090
20
-18.111326
30
0.0
10
28.513182
20
-18.111326
30
0.0
10
28.513182
20
-18.256806
30
0.0
10
28.513182
20
-18.402287
30
0.0
10
28.361090
20
-18.402287
30
0.0
10
28.208994
20
-18.402287
30
0.0
10
28.208994
20
-18.256806
30
0.0
62
0
0
LWPOLYLINE
100
AcDbPolyline
8
Capa_1
90
9
70
0
10
28.645437
20
-18.256806
30
0.0
10
28.645437
20
-18.111326
30
0.0
10
28.790917
20
-18.111326
30
0.0
10
28.936397
20
-18.111326
30
0.0
10
28.936397
20
-18.256806
30
0.0
10
28.936397
20
-18.402287
30
0.0
10
28.790917
20
-18.402287
30
0.0
10
28.645437
20
-18.402287
30
0.0
10
28.645437
20
-18.256806
30
0.0
62
0
0
LWPOLYLINE
100
AcDbPolyline
8
Capa_1
90
9
70
0
10
29.068652
20
-18.256806
30
0.0
10
29.068652
20
-18.111326
30
0.0
10
29.214132
20
-18.111326
30
0.0
10
29.359612
20
-18.111326
30
0.0
10
29.359612
20
-18.256806
30
0.0
10
29.359612
20
-18.402287
30
0.0
10
29.214132
20
-18.402287
30
0.0
10
29.068652
20
-18.402287
30
0.0
10
29.068652
20
-18.256806
30
0.0
62
0
0
LWPOLYLINE
100
AcDbPolyline
8
Capa_1
90
10
70
0
10
29.491867
20
-18.257230
30
0.0
10
29.491867
20
-18.111499
30
0.0
10
29.644408
20
-18.111499
30
0.0
10
29.796949
20
-18.111499
30
0.0
10
29.793195
20
-18.253673
30
0.0
10
29.789442
20
-18.395847
30
0.0
10
29.640654
20
-18.399586
30
0.0
10
29.491869
20
-18.403326
30
0.0
10
29.491869
20
-18.257412
30
0.0
10
29.491867
20
-18.257230
30
0.0
  0
ENDSEC
  0
SECTION
  2
OBJECTS
  0
DICTIONARY
  5
C
330
0
100
AcDbDictionary
  3
ACAD_GROUP
350
D
  3
ACAD_MLINESTYLE
350
17
  0
DICTIONARY
  5
D
330
C
100
AcDbDictionary
  0
DICTIONARY
  5
1A
330
C
100
AcDbDictionary
  0
DICTIONARY
  5
17
330
C
100
AcDbDictionary
  3
STANDARD
350
18
  0
DICTIONARY
  5
19
330
C
100
AcDbDictionary
  0
ENDSEC
  0
EOF
